<svg width="827" height="192" viewBox="0 0 827 192" fill="none" xmlns="http://www.w3.org/2000/svg">
<path opacity="0.05" d="M21.1 191.5C14.9 191.5 9.8 189.7 5.8 186.1C2 182.5 0.5 177.1 1.3 169.9C1.5 167.3 2.1 164.6 3.1 161.8C4.3 158.8 5.6 155.9 7 153.1C8.2 150.3 9.4 148.9 10.6 148.9C11.6 148.9 11.7 149.7 10.9 151.3C8.3 156.7 7 161.5 7 165.7C7 170.1 8.5 173.4 11.5 175.6C14.7 177.8 18.8 178.9 23.8 178.9C33.6 178.9 44.4 175.8 56.2 169.6C68 163.2 80.2 155.1 92.8 145.3C105.4 135.3 117.5 124.9 129.1 114.1C121.3 113.7 114 113.3 107.2 112.9C100.4 112.5 94.4 112.3 89.2 112.3C84.8 112.3 79.5 112.7 73.3 113.5C67.1 114.3 62.3 116.4 58.9 119.8C57.5 121.2 56.2 123.3 55 126.1C54 128.7 53.5 131.4 53.5 134.2C53.5 135 53.5 135.8 53.5 136.6C53.7 137.2 53.9 137.9 54.1 138.7C53.3 138.3 51.8 138 49.6 137.8C47.6 137.4 46.3 136.1 45.7 133.9C45.5 133.3 45.4 132.3 45.4 130.9C45.4 127.7 46.6 125.1 49 123.1C51.4 120.9 54.3 119 57.7 117.4C61.1 115.8 64.2 114.4 67 113.2C73.6 110.4 80.4 108.1 87.4 106.3C94.4 104.5 101.5 103.6 108.7 103.6C116.9 103.6 127.1 103.9 139.3 104.5C148.7 95.3 157.4 86.6 165.4 78.4C173.4 70.2 179.9 63.4 184.9 58C191.9 50.6 199.3 44.3 207.1 39.1C215.1 33.7 223.2 29.9 231.4 27.7H214.9C207.9 27.7 200.3 28 192.1 28.6C183.9 29.2 176.2 30.5 169 32.5C161.8 34.5 155.8 37.5 151 41.5C148 44.1 145.7 47.1 144.1 50.5C142.7 53.7 142 56.7 142 59.5C142 63.3 143.1 65.9 145.3 67.3C145.5 67.3 145.6 67.4 145.6 67.6C145.6 68.2 144.9 68.9 143.5 69.7C142.1 70.3 141.1 70.4 140.5 70C138.5 68.6 136.7 65.8 135.1 61.6C133.7 57.2 133.2 53.7 133.6 51.1C134.6 44.9 137.3 39.9 141.7 36.1C146.3 32.1 151.9 29 158.5 26.8C165.3 24.6 172.4 23.1 179.8 22.3C187.4 21.5 194.6 21 201.4 20.8C208.4 20.6 214.3 20.5 219.1 20.5H251.8C252.2 20.5 252.3 20.6 252.1 20.8C257.1 18.6 262.3 16.4 267.7 14.2C273.3 12 278.1 10.9 282.1 10.9C283.1 10.9 284.1 11.2 285.1 11.8C286.3 12.4 286.9 13 286.9 13.6C286.9 14.6 284.9 15.1 280.9 15.1C278.9 15.1 276.8 15.5 274.6 16.3C272.6 16.9 269.9 19 266.5 22.6C263.7 25.4 260.2 29.9 256 36.1C251.8 42.3 247.2 49.6 242.2 58C237.2 66.2 232.2 75 227.2 84.4C222.2 93.6 217.4 102.7 212.8 111.7C208.2 120.7 204.2 129 200.8 136.6C200.4 137.8 199.3 140.6 197.5 145C195.7 149.2 194 153.9 192.4 159.1C190.8 164.1 190 168.6 190 172.6C190 178 191.9 180.7 195.7 180.7C197.5 180.7 199.3 180.3 201.1 179.5C203.7 178.5 206.4 177 209.2 175C212 173 214.7 170.7 217.3 168.1C222.5 163.1 226.9 158.3 230.5 153.7C234.1 148.9 236.3 146 237.1 145C237.7 144 238.4 143.5 239.2 143.5C240 143.5 240.4 144 240.4 145C240.4 145.6 240.1 146.4 239.5 147.4C238.1 149.4 235.5 152.9 231.7 157.9C227.9 162.7 223.4 167.6 218.2 172.6C213.2 177.6 207.8 181.4 202 184C200.2 184.8 198.3 185.4 196.3 185.8C194.3 186.4 192.3 186.7 190.3 186.7C186.3 186.7 182.6 185.3 179.2 182.5C176 179.7 174.4 175.1 174.4 168.7C174.4 162.9 175.5 156.7 177.7 150.1C180.1 143.3 182.3 137.8 184.3 133.6C188.3 125 193 115.4 198.4 104.8C204 94.2 209.7 83.6 215.5 73C221.5 62.4 227 52.8 232 44.2C237 35.6 241.1 29.2 244.3 25C241.1 25 236.8 26.3 231.4 28.9C226 31.3 220.2 34.6 214 38.8C208 42.8 202.4 47.5 197.2 52.9C191 59.3 183.8 67.1 175.6 76.3C167.6 85.5 158.9 95.1 149.5 105.1C154.1 105.3 158.7 105.5 163.3 105.7C167.9 105.7 172.5 105.7 177.1 105.7C180.3 105.7 183.8 105.4 187.6 104.8C191.6 104 195.3 102.8 198.7 101.2C198.7 101.2 198.1 102.3 196.9 104.5C195.9 106.5 194.1 108.6 191.5 110.8C189.1 112.8 185.8 114 181.6 114.4C177.8 114.6 174 114.8 170.2 115C166.4 115 162.6 115 158.8 115C155.6 115 152.4 115 149.2 115C146.2 115 143.2 114.9 140.2 114.7C131 124.3 121.4 133.7 111.4 142.9C101.4 151.9 91.3 160.1 81.1 167.5C70.9 174.9 60.7 180.7 50.5 184.9C40.5 189.3 30.7 191.5 21.1 191.5ZM255.273 184.6C249.273 184.6 245.173 183.2 242.973 180.4C240.773 177.4 239.673 173.8 239.673 169.6C239.673 164 240.873 158 243.273 151.6C245.873 145.2 247.973 140.2 249.573 136.6C246.973 139.4 244.473 142.1 242.073 144.7C239.673 147.3 237.973 149.2 236.973 150.4C236.373 151.2 235.873 151.6 235.473 151.6C235.073 151.6 234.873 151.1 234.873 150.1C234.873 148.5 235.373 147 236.373 145.6C239.173 142 242.373 138.2 245.973 134.2C249.573 130.2 253.073 126 256.473 121.6C260.473 114.2 264.873 105.6 269.673 95.8C274.673 85.8 279.773 75.6 284.973 65.2C290.373 54.6 295.573 44.9 300.573 36.1C305.773 27.1 310.373 19.9 314.373 14.5C317.773 13.1 320.973 11.3 323.973 9.1C327.173 6.89999 330.273 4.89999 333.273 3.09999C336.473 1.09999 339.773 0.0999894 343.173 0.0999894C345.373 0.0999894 346.973 0.699988 347.973 1.89998C349.173 3.09999 349.973 4.49999 350.373 6.09998C350.573 6.69999 350.673 7.79999 350.673 9.39999C350.673 14 349.073 19.6 345.873 26.2C342.873 32.8 339.273 39.3 335.073 45.7C331.073 51.9 327.573 57 324.573 61C316.573 72.2 308.373 82.4 299.973 91.6C291.573 100.6 283.973 108.2 277.173 114.4C270.573 120.4 265.773 124.8 262.773 127.6C261.373 130.2 259.673 133.7 257.673 138.1C255.873 142.3 254.273 146.8 252.873 151.6C251.473 156.2 250.773 160.5 250.773 164.5C250.773 167.9 251.573 170.8 253.173 173.2C254.773 175.4 257.473 176.5 261.273 176.5C261.873 176.5 262.473 176.5 263.073 176.5C263.673 176.5 264.373 176.4 265.173 176.2C268.573 175.6 272.273 173.7 276.273 170.5C280.273 167.3 284.273 163.6 288.273 159.4C292.273 155.2 295.873 151.2 299.073 147.4C300.473 145.8 301.773 144.3 302.973 142.9C304.173 141.3 304.973 140.2 305.373 139.6C306.773 141 306.673 142.8 305.073 145C303.673 147 302.473 148.7 301.473 150.1C300.073 151.9 298.073 154.4 295.473 157.6C292.873 160.6 289.873 163.9 286.473 167.5C282.673 171.3 277.973 175.1 272.373 178.9C266.773 182.7 261.073 184.6 255.273 184.6ZM267.873 115.6C274.073 110.4 281.873 103 291.273 93.4C300.873 83.6 310.273 71.8 319.473 58C320.473 56.4 322.073 53.7 324.273 49.9C326.673 46.1 329.073 41.8 331.473 37C334.073 32 336.273 27.2 338.073 22.6C339.873 17.8 340.773 13.7 340.773 10.3C340.773 7.09999 339.873 5.49999 338.073 5.49999C335.873 5.49999 332.973 7.39999 329.373 11.2C325.173 15.6 320.373 22.1 314.973 30.7C309.773 39.1 304.273 48.5 298.473 58.9C292.673 69.3 287.073 79.5 281.673 89.5C276.473 99.5 271.873 108.2 267.873 115.6ZM316.734 186.4C308.534 186.4 302.834 184.8 299.634 181.6C296.434 178.4 294.834 174.5 294.834 169.9C294.834 164.1 296.334 157.9 299.334 151.3C302.534 144.7 305.534 139.1 308.334 134.5C311.534 129.7 315.834 124.7 321.234 119.5C326.634 114.3 332.534 109.9 338.934 106.3C345.334 102.7 351.534 100.9 357.534 100.9C362.734 100.9 366.334 102.2 368.334 104.8C370.334 107.2 371.334 110.1 371.334 113.5C371.334 119.7 369.434 124.8 365.634 128.8C362.034 132.8 357.534 136.1 352.134 138.7C346.734 141.1 341.534 143.1 336.534 144.7C333.534 145.5 330.034 146.3 326.034 147.1C322.034 147.9 318.234 148.3 314.634 148.3C313.234 151.9 312.134 155.4 311.334 158.8C310.534 162.2 310.134 165.3 310.134 168.1C310.134 171.5 310.934 174.3 312.534 176.5C314.334 178.7 317.234 179.8 321.234 179.8C322.834 179.8 324.734 179.6 326.934 179.2C329.134 178.8 331.534 178.2 334.134 177.4C340.134 175.4 346.034 172.2 351.834 167.8C357.634 163.4 362.934 158.7 367.734 153.7C372.734 148.5 376.534 144.2 379.134 140.8C379.734 141.4 380.034 142.1 380.034 142.9C380.034 143.9 379.334 145.5 377.934 147.7C373.934 153.3 368.734 159.1 362.334 165.1C355.934 171.1 348.834 176.2 341.034 180.4C333.234 184.4 325.134 186.4 316.734 186.4ZM317.034 142.3C319.634 142.5 322.534 142.5 325.734 142.3C329.134 141.9 332.434 141.2 335.634 140.2C343.834 137.8 349.734 134 353.334 128.8C357.134 123.4 359.034 118.6 359.034 114.4C359.034 112 358.534 110 357.534 108.4C356.534 106.8 354.934 106 352.734 106C346.934 106 341.734 108.2 337.134 112.6C332.534 116.8 328.534 121.7 325.134 127.3C321.734 132.9 319.034 137.9 317.034 142.3ZM422.341 185.8C420.341 185.8 418.341 185.3 416.341 184.3C413.741 183.1 411.241 180.7 408.841 177.1C406.441 173.5 404.441 169.7 402.841 165.7C401.241 161.7 400.141 158.4 399.541 155.8C393.941 160.6 389.141 165.3 385.141 169.9C381.141 174.5 376.541 179.4 371.341 184.6C370.741 185.2 369.241 185.5 366.841 185.5C365.441 185.5 364.041 185.3 362.641 184.9C361.241 184.5 360.541 183.9 360.541 183.1C360.541 182.1 361.141 181.2 362.341 180.4C369.341 174.8 375.441 170 380.641 166C385.841 161.8 391.841 156.9 398.641 151.3C398.441 150.3 398.041 148.1 397.441 144.7C396.841 141.3 396.141 137.6 395.341 133.6C394.741 129.6 394.241 126.1 393.841 123.1C393.441 119.9 393.241 118 393.241 117.4C393.641 115 394.941 112.9 397.141 111.1C399.341 109.1 401.841 107.6 404.641 106.6C407.641 105.4 410.241 104.8 412.441 104.8C415.241 104.8 416.641 105.5 416.641 106.9C416.641 107.7 415.841 108.1 414.241 108.1C411.641 108.1 410.041 109.2 409.441 111.4C408.841 113.6 408.441 115.4 408.241 116.8C408.041 118 407.841 119.2 407.641 120.4C407.641 121.6 407.641 122.8 407.641 124C407.641 127 407.841 130 408.241 133C408.641 136 409.141 138.9 409.741 141.7C410.741 140.9 412.741 139.3 415.741 136.9C418.741 134.5 422.241 131.7 426.241 128.5C430.241 125.3 434.241 122.1 438.241 118.9C442.241 115.7 445.641 113 448.441 110.8C451.241 108.6 452.941 107.3 453.541 106.9C455.941 105.3 458.841 104.6 462.241 104.8C465.841 104.8 468.941 104.8 471.541 104.8C472.141 104.8 472.441 105.4 472.441 106.6C472.441 108.4 472.041 109.3 471.241 109.3C468.441 109.5 465.541 110.2 462.541 111.4C459.741 112.4 457.541 113.3 455.941 114.1C451.341 116.1 446.241 119.1 440.641 123.1C435.241 126.9 429.941 130.9 424.741 135.1C419.541 139.1 414.941 142.8 410.941 146.2C411.341 148 412.141 151.1 413.341 155.5C414.741 159.9 416.441 164.1 418.441 168.1C420.841 173.3 423.741 175.9 427.141 175.9C429.941 175.9 432.641 174.3 435.241 171.1C437.841 167.9 440.041 164.3 441.841 160.3C443.841 156.1 445.141 152.6 445.741 149.8C446.141 148.6 446.641 148 447.241 148C448.641 148 449.141 149.1 448.741 151.3C447.741 155.9 446.041 160.9 443.641 166.3C441.241 171.7 438.241 176.3 434.641 180.1C431.041 183.9 426.941 185.8 422.341 185.8ZM504.789 184.9C502.789 184.9 501.089 184.5 499.689 183.7C498.289 182.9 497.589 181.4 497.589 179.2C497.589 176.4 498.289 173.2 499.689 169.6C501.089 166 502.689 162.5 504.489 159.1C506.289 155.5 507.889 152.6 509.289 150.4C502.289 157.8 494.989 164.8 487.389 171.4C483.589 174.6 479.389 177.6 474.789 180.4C470.189 183.2 465.289 184.6 460.089 184.6C458.089 184.6 456.689 184 455.889 182.8C455.089 181.4 454.689 179.8 454.689 178C454.689 177 454.789 176.3 454.989 175.9C455.989 168.1 458.489 160 462.489 151.6C466.489 143.2 471.389 135.3 477.189 127.9C482.989 120.5 488.889 114.5 494.889 109.9C501.689 104.7 509.189 102.1 517.389 102.1H551.889C552.889 102.1 553.389 102.5 553.389 103.3C553.389 104.9 552.489 105.7 550.689 105.7C548.689 105.7 546.689 107 544.689 109.6C542.689 112 541.189 114 540.189 115.6C538.789 117.8 536.589 121.5 533.589 126.7C530.589 131.9 527.489 137.6 524.289 143.8C521.289 149.8 518.689 155.4 516.489 160.6C514.289 165.8 513.189 169.6 513.189 172C513.189 174.8 514.589 176.2 517.389 176.2C520.389 176.2 523.789 174.8 527.589 172C531.389 169.2 535.189 165.8 538.989 161.8C542.989 157.6 546.589 153.5 549.789 149.5C553.189 145.3 555.889 142 557.889 139.6C559.089 140.8 558.989 142.5 557.589 144.7C556.389 146.7 555.289 148.3 554.289 149.5C550.289 154.7 545.689 160.1 540.489 165.7C535.289 171.1 529.589 175.7 523.389 179.5C517.389 183.1 511.189 184.9 504.789 184.9ZM472.389 174.4C474.789 174.4 478.089 172.7 482.289 169.3C486.689 165.7 491.389 161.3 496.389 156.1C501.389 150.7 506.089 145.1 510.489 139.3C514.889 133.3 518.489 127.9 521.289 123.1C524.289 118.1 525.789 114.3 525.789 111.7C525.789 109.5 525.089 108 523.689 107.2C522.489 106.4 520.889 106 518.889 106C515.689 106 512.189 107.2 508.389 109.6C504.789 111.8 501.889 114 499.689 116.2C497.289 118.4 494.389 121.9 490.989 126.7C487.789 131.3 484.589 136.4 481.389 142C478.189 147.6 475.489 153 473.289 158.2C471.089 163.4 469.989 167.6 469.989 170.8C469.989 173.2 470.789 174.4 472.389 174.4ZM553.973 188.5C553.173 188.5 553.173 187.6 553.973 185.8C554.973 184 555.873 182 556.673 179.8C557.673 177.6 558.673 175.2 559.673 172.6C561.673 167.8 563.873 162.4 566.273 156.4C568.673 150.4 570.973 144.6 573.173 139C575.373 133.2 577.273 128.3 578.873 124.3C580.673 120.1 581.873 117.4 582.473 116.2C579.673 119.2 576.273 123 572.273 127.6C568.473 132 564.873 136.3 561.473 140.5C558.073 144.7 555.473 148 553.673 150.4C553.073 151.2 552.573 151.6 552.173 151.6C551.773 151.6 551.573 151.1 551.573 150.1C551.573 148.5 552.073 147 553.073 145.6C556.873 140.8 561.073 135.4 565.673 129.4C570.473 123.4 574.773 117.9 578.573 112.9C582.373 107.7 584.773 104.3 585.773 102.7C587.973 102.3 591.173 101.7 595.373 100.9C599.773 100.1 602.773 99 604.373 97.6C604.973 97 605.573 96.7 606.173 96.7C606.573 96.7 606.773 97.1 606.773 97.9C606.973 98.5 606.773 99.2 606.173 100C604.973 101.4 602.873 104.7 599.873 109.9C597.073 114.9 593.973 120.5 590.573 126.7C587.373 132.9 584.373 138.5 581.573 143.5C583.973 140.3 586.573 137.2 589.373 134.2C592.173 131.2 594.873 128.3 597.473 125.5C599.873 123.1 603.173 120.1 607.373 116.5C611.573 112.9 615.973 109.6 620.573 106.6C625.173 103.6 629.173 101.9 632.573 101.5C633.373 101.3 634.073 101.2 634.673 101.2C635.473 101.2 636.073 101.2 636.473 101.2C640.873 101.2 643.073 102.8 643.073 106C643.073 108.4 641.773 111.6 639.173 115.6C637.773 117.8 635.573 121.5 632.573 126.7C629.773 131.7 626.873 137.2 623.873 143.2C621.073 149 618.573 154.5 616.373 159.7C614.373 164.7 613.373 168.4 613.373 170.8C613.373 173.6 614.773 175 617.573 175C620.973 175 624.673 173.3 628.673 169.9C632.873 166.5 637.373 162.2 642.173 157C646.973 151.6 651.773 145.9 656.573 139.9C656.973 140.3 657.173 141 657.173 142C657.173 143.4 656.673 144.8 655.673 146.2C654.873 147.4 654.073 148.5 653.273 149.5C651.273 152.1 648.573 155.4 645.173 159.4C641.973 163.2 638.673 167 635.273 170.8C631.873 174.4 628.773 177.3 625.973 179.5C623.973 180.9 621.373 182.4 618.173 184C614.973 185.6 611.773 186.4 608.573 186.4C604.973 186.4 602.473 185.5 601.073 183.7C599.673 181.7 598.973 179.3 598.973 176.5C598.973 173.3 599.573 169.9 600.773 166.3C601.973 162.7 603.273 159.3 604.673 156.1C606.273 152.7 607.473 150.2 608.273 148.6C611.873 141.6 615.173 135 618.173 128.8C621.173 122.6 623.273 118.2 624.473 115.6C625.073 114.4 625.373 113.4 625.373 112.6C625.373 111.2 624.273 111.1 622.073 112.3C619.873 113.5 617.173 115.3 613.973 117.7C610.973 120.1 608.173 122.5 605.573 124.9C602.973 127.1 601.273 128.6 600.473 129.4C593.073 137.2 586.573 145.9 580.973 155.5C575.573 164.9 570.973 174.6 567.173 184.6C564.573 184.8 561.973 185.5 559.373 186.7C556.773 187.9 554.973 188.5 553.973 188.5ZM691.996 184.9C689.996 184.9 688.296 184.5 686.896 183.7C685.496 182.9 684.796 181.4 684.796 179.2C684.796 176.4 685.496 173.2 686.896 169.6C688.296 166 689.896 162.5 691.696 159.1C693.496 155.5 695.096 152.6 696.496 150.4C689.496 157.8 682.196 164.8 674.596 171.4C670.796 174.6 666.596 177.6 661.996 180.4C657.396 183.2 652.496 184.6 647.296 184.6C645.296 184.6 643.896 184 643.096 182.8C642.296 181.4 641.896 179.8 641.896 178C641.896 177 641.996 176.3 642.196 175.9C643.196 168.1 645.696 160 649.696 151.6C653.696 143.2 658.596 135.3 664.396 127.9C670.196 120.5 676.096 114.5 682.096 109.9C686.696 106.5 691.096 104.4 695.296 103.6C699.496 102.6 704.096 102.1 709.096 102.1H718.996C722.196 96.7 725.496 90.7 728.896 84.1C732.496 77.3 735.996 70.6 739.396 64C742.996 57.4 746.296 51.6 749.296 46.6C757.496 32.6 766.496 21.4 776.296 13C786.296 4.59999 797.396 0.399986 809.596 0.399986C812.196 0.399986 814.596 1.19999 816.796 2.79999C818.996 4.2 819.996 6.4 819.796 9.39999L819.196 20.2C819.196 20.4 818.996 20.7 818.596 21.1C818.196 21.3 817.896 21.4 817.696 21.4C817.496 21.4 817.196 21.2 816.796 20.8C816.196 17.2 814.396 14.5 811.396 12.7C808.396 10.7 804.696 9.69999 800.296 9.69999C798.896 9.69999 797.296 9.79999 795.496 9.99999C793.896 10.2 792.296 10.6 790.696 11.2C785.096 13.2 779.796 17.3 774.796 23.5C769.796 29.5 764.396 37.5 758.596 47.5C756.596 51.3 753.996 56.3 750.796 62.5C747.596 68.5 744.196 75 740.596 82C737.196 89 733.896 95.8 730.696 102.4C727.696 109 725.096 114.6 722.896 119.2C721.896 121.6 720.196 125.3 717.796 130.3C715.396 135.1 712.796 140.4 709.996 146.2C707.396 151.8 705.096 157 703.096 161.8C701.296 166.6 700.396 170 700.396 172C700.396 174.8 701.596 176.2 703.996 176.2C706.396 176.2 709.596 174.8 713.596 172C717.596 169 721.696 165.4 725.896 161.2C730.296 156.8 734.196 152.6 737.596 148.6C741.196 144.6 743.696 141.6 745.096 139.6C745.696 140.2 745.996 140.9 745.996 141.7C745.996 143.1 745.396 144.5 744.196 145.9C743.196 147.3 742.296 148.5 741.496 149.5C737.896 154.3 733.396 159.5 727.996 165.1C722.796 170.5 717.096 175.2 710.896 179.2C704.696 183 698.396 184.9 691.996 184.9ZM659.596 174.4C661.996 174.4 665.296 172.7 669.496 169.3C673.896 165.7 678.596 161.3 683.596 156.1C688.596 150.7 693.296 145.1 697.696 139.3C702.096 133.3 705.696 127.9 708.496 123.1C711.496 118.1 712.996 114.3 712.996 111.7C712.996 109.5 712.296 108 710.896 107.2C709.696 106.4 708.096 106 706.096 106C702.896 106 699.396 107.2 695.596 109.6C691.996 111.8 689.096 114 686.896 116.2C684.496 118.4 681.596 121.9 678.196 126.7C674.996 131.3 671.796 136.4 668.596 142C665.396 147.6 662.696 153 660.496 158.2C658.296 163.4 657.196 167.6 657.196 170.8C657.196 173.2 657.996 174.4 659.596 174.4ZM741.18 188.2C740.38 188.2 740.38 187.4 741.18 185.8C742.18 184 743.08 182 743.88 179.8C744.88 177.6 745.88 175.2 746.88 172.6C748.88 167.8 751.08 162.4 753.48 156.4C755.88 150.4 758.18 144.6 760.38 139C762.58 133.2 764.48 128.3 766.08 124.3C767.88 120.1 769.08 117.4 769.68 116.2C766.88 119.2 763.48 123 759.48 127.6C755.68 132 752.08 136.3 748.68 140.5C745.28 144.7 742.68 148 740.88 150.4C740.28 151.2 739.78 151.6 739.38 151.6C738.98 151.6 738.78 151.1 738.78 150.1C738.78 148.5 739.28 147 740.28 145.6C744.08 140.8 748.28 135.4 752.88 129.4C757.68 123.4 761.98 117.9 765.78 112.9C769.58 107.7 771.98 104.3 772.98 102.7C775.18 102.3 778.38 101.7 782.58 100.9C786.98 100.1 789.98 99 791.58 97.6C792.18 97 792.78 96.7 793.38 96.7C793.78 96.7 793.98 97.1 793.98 97.9C794.18 98.5 793.98 99.2 793.38 100C792.18 101.2 790.38 103.8 787.98 107.8C785.78 111.8 783.28 116.4 780.48 121.6C777.68 126.8 774.98 131.8 772.38 136.6C774.38 133.6 776.98 130.1 780.18 126.1C783.58 121.9 787.28 117.9 791.28 114.1C795.28 110.1 799.28 106.8 803.28 104.2C807.48 101.6 811.38 100.3 814.98 100.3C817.58 100.3 819.78 100.9 821.58 102.1C823.38 103.1 824.78 105 825.78 107.8C826.38 109.2 826.68 110.8 826.68 112.6C826.68 116 825.78 119.3 823.98 122.5C822.38 125.5 821.18 127.8 820.38 129.4C820.18 130 819.48 130.6 818.28 131.2C817.08 131.6 816.58 131.4 816.78 130.6C816.98 129.6 817.08 128.6 817.08 127.6C817.28 126.6 817.38 125.5 817.38 124.3C817.38 120.9 816.68 117.8 815.28 115C814.08 112.2 811.78 110.8 808.38 110.8C805.18 110.8 801.28 112.8 796.68 116.8C792.08 120.8 787.48 125.4 782.88 130.6C777.08 137.4 772.48 143.9 769.08 150.1C765.68 156.1 762.88 162 760.68 167.8C759.48 171 758.28 174.2 757.08 177.4C755.88 180.4 754.98 182.8 754.38 184.6C751.78 184.8 749.18 185.4 746.58 186.4C743.98 187.6 742.18 188.2 741.18 188.2Z" fill="white"/>
</svg>
