<svg width="487" height="190" viewBox="0 0 487 190" fill="none" xmlns="http://www.w3.org/2000/svg">
<path opacity="0.05" d="M5.3 189.7C3.9 189.7 2.8 189.3 2 188.5C1.2 187.9 1.2 187.4 2 187C6.4 186.2 10.2 184.6 13.4 182.2C16.6 179.6 19.2 176.4 21.2 172.6C25.4 165.6 29.5 158.6 33.5 151.6C37.5 144.4 41.4 137.2 45.2 130L74 76.9C78.6 68.7 82.6 60.8 86 53.2C89.6 45.6 92.4 40.1 94.4 36.7C95.8 34.1 98.2 31.8 101.6 29.8C105.2 27.6 108.7 25.9 112.1 24.7C110.9 24.7 109.7 24.7 108.5 24.7C107.3 24.5 106 24.4 104.6 24.4C98.4 24.4 91.6 24.8 84.2 25.6C77 26.2 69.9 27.2 62.9 28.6C56.1 30 50.1 31.9 44.9 34.3C39.7 36.7 36.2 39.6 34.4 43C33.6 44.8 32.9 46.6 32.3 48.4C31.7 50.2 31.4 52 31.4 53.8C31.4 58.4 33 61.7 36.2 63.7C36.4 63.7 36.5 63.9 36.5 64.3C36.5 64.7 36.1 65.1 35.3 65.5C34.7 65.9 34.1 66 33.5 65.8C31.7 64.8 29.5 62.4 26.9 58.6C24.3 54.6 22.7 51.3 22.1 48.7C21.5 46.3 21.2 44.1 21.2 42.1C21.2 36.9 22.9 32.9 26.3 30.1C29.7 27.1 34 25 39.2 23.8C44.4 22.4 49.7 21.6 55.1 21.4C60.7 21 65.6 20.8 69.8 20.8C76.2 20.8 83.8 20.8 92.6 20.8C101.4 20.6 109.5 20.5 116.9 20.5C118.7 20.5 120.7 20.5 122.9 20.5C125.1 20.3 127.4 20.2 129.8 20.2C135.2 20.2 140.8 20.5 146.6 21.1C152.4 21.7 157.7 23 162.5 25C167.3 27 171 30.1 173.6 34.3C176.2 38.7 177.5 43.5 177.5 48.7C177.5 53.7 176.5 58.7 174.5 63.7C172.5 68.7 170.1 73 167.3 76.6C165.5 78.8 163.4 81 161 83.2C158.6 85.4 155.9 87.5 152.9 89.5C149.9 91.5 146.6 93.4 143 95.2C139.6 96.8 135.5 98.1 130.7 99.1C130.5 99.1 130.3 99.4 130.1 100C130.1 100.6 130.3 100.9 130.7 100.9C131.7 101.1 133.4 101.4 135.8 101.8C138.4 102 140.7 102.3 142.7 102.7C149.7 104.1 155.5 107.1 160.1 111.7C164.9 116.1 167.3 122.1 167.3 129.7C167.3 138.3 165 146.2 160.4 153.4C156 160.6 150.3 166.8 143.3 172C136.3 177 129 180.9 121.4 183.7C111.8 187.3 100.8 189.1 88.4 189.1C81 189.1 73.3 188.4 65.3 187C57.3 185.6 50 183.2 43.4 179.8C42 179 40.6 178.4 39.2 178C37.8 177.4 36.3 177.1 34.7 177.1C31.9 177.1 28.9 177.9 25.7 179.5C23.7 180.3 21.1 181.8 17.9 184C14.7 186.2 11.1 188 7.1 189.4C6.7 189.6 6.1 189.7 5.3 189.7ZM78.8 184.9C84 184.9 89.2 184.4 94.4 183.4C99.6 182.2 104.3 180.8 108.5 179.2C115.9 176.4 122.7 172.5 128.9 167.5C135.1 162.3 140.1 156.2 143.9 149.2C147.9 142 149.9 134 149.9 125.2C149.9 119.4 148.4 115 145.4 112C142.4 108.8 138.6 106.6 134 105.4C129.4 104.2 124.6 103.6 119.6 103.6C115.8 103.6 112.2 103.8 108.8 104.2C105.4 104.6 102.3 105.1 99.5 105.7C93.9 106.7 88.9 107.8 84.5 109C83.7 108.6 83.8 107.9 84.8 106.9C85.8 105.7 87.1 104.4 88.7 103C90.5 101.6 91.9 100.5 92.9 99.7C93.3 99.3 94.1 98.7 95.3 97.9C96.7 96.9 97.8 96.4 98.6 96.4C108.4 96.4 117.1 95.8 124.7 94.6C132.5 93.4 139.2 90.5 144.8 85.9C150.4 81.1 155 73.7 158.6 63.7C160.4 58.5 161.3 53.4 161.3 48.4C161.3 42.6 159.9 37.6 157.1 33.4C154.3 29 149.8 26.4 143.6 25.6C142.8 25.4 141.9 25.3 140.9 25.3C139.9 25.3 138.9 25.3 137.9 25.3C134.1 25.3 129.9 25.8 125.3 26.8C120.9 27.8 117.6 29.7 115.4 32.5C110.4 39.1 105.6 46.6 101 55C96.4 63.2 92 71.6 87.8 80.2C83.6 88.6 79.6 96.5 75.8 103.9C71.2 112.9 66.5 122 61.7 131.2C56.9 140.4 52.2 149.7 47.6 159.1C46.4 161.5 45.8 163.8 45.8 166C45.8 170 48.3 173.9 53.3 177.7C56.7 180.3 60.6 182.2 65 183.4C69.6 184.4 74.2 184.9 78.8 184.9ZM197.757 186.4C189.557 186.4 183.857 184.8 180.657 181.6C177.457 178.4 175.857 174.5 175.857 169.9C175.857 164.1 177.357 157.9 180.357 151.3C183.557 144.7 186.557 139.1 189.357 134.5C192.557 129.7 196.857 124.7 202.257 119.5C207.657 114.3 213.557 109.9 219.957 106.3C226.357 102.7 232.557 100.9 238.557 100.9C243.757 100.9 247.357 102.2 249.357 104.8C251.357 107.2 252.357 110.1 252.357 113.5C252.357 119.7 250.457 124.8 246.657 128.8C243.057 132.8 238.557 136.1 233.157 138.7C227.757 141.1 222.557 143.1 217.557 144.7C214.557 145.5 211.057 146.3 207.057 147.1C203.057 147.9 199.257 148.3 195.657 148.3C194.257 151.9 193.157 155.4 192.357 158.8C191.557 162.2 191.157 165.3 191.157 168.1C191.157 171.5 191.957 174.3 193.557 176.5C195.357 178.7 198.257 179.8 202.257 179.8C203.857 179.8 205.757 179.6 207.957 179.2C210.157 178.8 212.557 178.2 215.157 177.4C221.157 175.4 227.057 172.2 232.857 167.8C238.657 163.4 243.957 158.7 248.757 153.7C253.757 148.5 257.557 144.2 260.157 140.8C260.757 141.4 261.057 142.1 261.057 142.9C261.057 143.9 260.357 145.5 258.957 147.7C254.957 153.3 249.757 159.1 243.357 165.1C236.957 171.1 229.857 176.2 222.057 180.4C214.257 184.4 206.157 186.4 197.757 186.4ZM198.057 142.3C200.657 142.5 203.557 142.5 206.757 142.3C210.157 141.9 213.457 141.2 216.657 140.2C224.857 137.8 230.757 134 234.357 128.8C238.157 123.4 240.057 118.6 240.057 114.4C240.057 112 239.557 110 238.557 108.4C237.557 106.8 235.957 106 233.757 106C227.957 106 222.757 108.2 218.157 112.6C213.557 116.8 209.557 121.7 206.157 127.3C202.757 132.9 200.057 137.9 198.057 142.3ZM275.164 184.6C269.164 184.6 265.064 183.2 262.864 180.4C260.664 177.4 259.564 173.8 259.564 169.6C259.564 164 260.764 158 263.164 151.6C265.764 145.2 267.864 140.2 269.464 136.6C266.864 139.4 264.364 142.1 261.964 144.7C259.564 147.3 257.864 149.2 256.864 150.4C256.264 151.2 255.764 151.6 255.364 151.6C254.964 151.6 254.764 151.1 254.764 150.1C254.764 148.5 255.264 147 256.264 145.6C259.064 142 262.264 138.2 265.864 134.2C269.464 130.2 272.964 126 276.364 121.6C280.364 114.2 284.764 105.6 289.564 95.8C294.564 85.8 299.664 75.6 304.864 65.2C310.264 54.6 315.464 44.9 320.464 36.1C325.664 27.1 330.264 19.9 334.264 14.5C337.664 13.1 340.864 11.3 343.864 9.1C347.064 6.89999 350.164 4.89999 353.164 3.09999C356.364 1.09999 359.664 0.0999894 363.064 0.0999894C365.264 0.0999894 366.864 0.699988 367.864 1.89998C369.064 3.09999 369.864 4.49999 370.264 6.09998C370.464 6.69999 370.564 7.79999 370.564 9.39999C370.564 14 368.964 19.6 365.764 26.2C362.764 32.8 359.164 39.3 354.964 45.7C350.964 51.9 347.464 57 344.464 61C336.464 72.2 328.264 82.4 319.864 91.6C311.464 100.6 303.864 108.2 297.064 114.4C290.464 120.4 285.664 124.8 282.664 127.6C281.264 130.2 279.564 133.7 277.564 138.1C275.764 142.3 274.164 146.8 272.764 151.6C271.364 156.2 270.664 160.5 270.664 164.5C270.664 167.9 271.464 170.8 273.064 173.2C274.664 175.4 277.364 176.5 281.164 176.5C281.764 176.5 282.364 176.5 282.964 176.5C283.564 176.5 284.264 176.4 285.064 176.2C288.464 175.6 292.164 173.7 296.164 170.5C300.164 167.3 304.164 163.6 308.164 159.4C312.164 155.2 315.764 151.2 318.964 147.4C320.364 145.8 321.664 144.3 322.864 142.9C324.064 141.3 324.864 140.2 325.264 139.6C326.664 141 326.564 142.8 324.964 145C323.564 147 322.364 148.7 321.364 150.1C319.964 151.9 317.964 154.4 315.364 157.6C312.764 160.6 309.764 163.9 306.364 167.5C302.564 171.3 297.864 175.1 292.264 178.9C286.664 182.7 280.964 184.6 275.164 184.6ZM287.764 115.6C293.964 110.4 301.764 103 311.164 93.4C320.764 83.6 330.164 71.8 339.364 58C340.364 56.4 341.964 53.7 344.164 49.9C346.564 46.1 348.964 41.8 351.364 37C353.964 32 356.164 27.2 357.964 22.6C359.764 17.8 360.664 13.7 360.664 10.3C360.664 7.09999 359.764 5.49999 357.964 5.49999C355.764 5.49999 352.864 7.39999 349.264 11.2C345.064 15.6 340.264 22.1 334.864 30.7C329.664 39.1 324.164 48.5 318.364 58.9C312.564 69.3 306.964 79.5 301.564 89.5C296.364 99.5 291.764 108.2 287.764 115.6ZM324.324 184.6C321.124 184.6 318.224 184 315.624 182.8C313.224 181.4 312.024 178.5 312.024 174.1C312.024 167.1 313.824 160.1 317.424 153.1C321.024 145.9 324.724 139.6 328.524 134.2C331.924 129.6 335.724 125.3 339.924 121.3C344.324 117.1 349.024 113.5 354.024 110.5C357.224 108.5 361.524 106.4 366.924 104.2C372.524 101.8 377.224 100.6 381.024 100.6C384.224 100.6 387.024 101.5 389.424 103.3C391.824 104.9 393.024 107.9 393.024 112.3C393.024 119.1 391.224 126.1 387.624 133.3C384.224 140.3 380.624 146.5 376.824 151.9C375.024 154.3 373.224 156.6 371.424 158.8C369.624 160.8 367.624 162.9 365.424 165.1C372.824 165.1 379.624 163 385.824 158.8C392.024 154.4 397.424 149.1 402.024 142.9L402.624 142.3C403.224 142.3 403.524 142.9 403.524 144.1C403.524 145.5 403.124 146.8 402.324 148C398.324 153.6 393.324 158.6 387.324 163C381.324 167.2 374.524 169.3 366.924 169.3C366.124 169.3 365.324 169.3 364.524 169.3C363.724 169.3 362.924 169.2 362.124 169C350.924 179.4 338.324 184.6 324.324 184.6ZM332.124 179.5C334.924 179.5 337.924 178.5 341.124 176.5C344.524 174.5 347.124 172.6 348.924 170.8C352.324 167.4 355.424 163.8 358.224 160C361.024 156 363.624 152 366.024 148C368.824 143.2 371.624 137.5 374.424 130.9C377.224 124.3 378.624 118.1 378.624 112.3C378.624 107.7 377.024 105.4 373.824 105.4C371.224 105.4 368.024 106.5 364.224 108.7C360.624 110.9 357.924 112.9 356.124 114.7C349.324 121.7 343.624 129.3 339.024 137.5C336.424 142.1 333.624 147.5 330.624 153.7C327.624 159.9 326.124 165.6 326.124 170.8C326.124 171.6 326.124 172.4 326.124 173.2C326.324 173.8 326.524 174.5 326.724 175.3C327.524 178.1 329.324 179.5 332.124 179.5ZM423.519 185.8C420.719 185.8 418.319 184.8 416.319 182.8C414.319 180.8 413.319 177.3 413.319 172.3C413.319 167.9 413.619 162.7 414.219 156.7C415.019 150.7 416.119 144.6 417.519 138.4C418.919 132 420.519 126.4 422.319 121.6C418.919 126.6 415.119 131.8 410.919 137.2C406.719 142.4 403.219 146.8 400.419 150.4C399.819 151.2 399.319 151.6 398.919 151.6C398.519 151.6 398.319 151.1 398.319 150.1C398.319 148.5 398.819 147 399.819 145.6C404.019 139.8 408.719 133.2 413.919 125.8C419.319 118.4 423.919 111.7 427.719 105.7C429.919 105.3 432.519 104.7 435.519 103.9C438.719 103.1 441.019 102 442.419 100.6C443.419 100 444.019 99.7 444.219 99.7C444.819 99.7 445.119 100.1 445.119 100.9C445.119 101.5 444.819 102.2 444.219 103C442.419 105.6 440.419 109.6 438.219 115C436.219 120.4 434.119 126.4 431.919 133C429.919 139.6 428.219 146.1 426.819 152.5C425.619 158.7 425.019 164 425.019 168.4C425.019 171.6 425.519 173.9 426.519 175.3C427.519 176.5 428.819 177.1 430.419 177.1C432.619 177.1 435.219 176 438.219 173.8C441.419 171.6 444.119 169.3 446.319 166.9C449.119 163.9 452.219 159.9 455.619 154.9C459.219 149.9 462.519 144.6 465.519 139C468.719 133.4 471.119 128.3 472.719 123.7C473.919 120.5 474.719 117.8 475.119 115.6C475.519 113.2 475.719 111.3 475.719 109.9C475.719 107.5 475.419 105.8 474.819 104.8C474.219 103.8 473.719 103.2 473.319 103C472.119 102.6 471.519 102.1 471.519 101.5C471.519 101.1 471.919 100.8 472.719 100.6C473.519 100.2 474.319 100.2 475.119 100.6C477.719 101.4 480.319 102.6 482.919 104.2C485.519 105.6 486.819 108.4 486.819 112.6C486.819 113.6 486.719 114.8 486.519 116.2C486.319 117.4 485.919 118.8 485.319 120.4C484.119 123.6 481.619 128.1 477.819 133.9C474.219 139.7 470.019 145.8 465.219 152.2C460.419 158.6 455.619 164.4 450.819 169.6C446.019 174.8 441.819 178.5 438.219 180.7C435.819 182.1 433.319 183.3 430.719 184.3C428.119 185.3 425.719 185.8 423.519 185.8Z" fill="white"/>
</svg>
